<svg xmlns="http://www.w3.org/2000/svg" fill="#ffffff" viewBox="0 0 24 24">
  <path d="M20 4a9.9 9.9 0 0 0-14 14l-1 4 4-1a9.9 9.9 0 0 0 11-3.9A9.9 9.9 0 0 0 20 4zm-8 16c-1.7 0-3.3-.6-4.6-1.7l-.3-.3-2.7.7.7-2.7-.3-.3A7 7 0 1 1 12 20zm4-5.1c-.2-.3-.7-.5-1.4-.9-.7-.4-.9-.5-1.3 0-.4.5-.5.7-.9.6-.3 0-1.1-.4-2-1.2-.7-.7-1.2-1.4-1.3-1.7-.1-.3 0-.5.4-.9.2-.2.3-.4.5-.6.1-.2.2-.4.3-.6l-.2-.4a1.2 1.2 0 0 0-.5-.4c-.2-.1-.4 0-.6 0h-.3c-.3 0-.6.2-.8.5-.3.5-1 1-1 2.5 0 1.5 1.1 2.9 1.3 3.1.2.3 2.2 3.4 5.4 3.8.6.1 1.2 0 1.6-.2.5-.2 1.5-.7 1.7-1.4.2-.6.2-1.1.1-1.4z"></path>
</svg>
